<svg width="32" height="32" viewBox="0 0 32 32" fill="none" xmlns="http://www.w3.org/2000/svg">
  <defs>
    <linearGradient id="gradient" x1="0%" y1="0%" x2="100%" y2="100%">
      <stop offset="0%" style="stop-color:#3B82F6;stop-opacity:1" />
      <stop offset="100%" style="stop-color:#8B5CF6;stop-opacity:1" />
    </linearGradient>
  </defs>
  <rect width="32" height="32" rx="8" fill="url(#gradient)"/>
  <g transform="translate(8, 8)">
    <path d="M9.813 15.904 9 18.75l-.813-2.846a4.5 4.5 0 0 0-3.09-3.09L2.25 12l2.846-.813a4.5 4.5 0 0 0 3.09-3.09L9 5.25l.813 2.846a4.5 4.5 0 0 0 3.09 3.09L15.75 12l-2.846.813a4.5 4.5 0 0 0-3.091 3.09Z" fill="white"/>
    <path d="M6.697 7.191 6.375 6l-.322 1.191a1.5 1.5 0 0 1-1.03 1.03L3.832 8.5l1.191.278a1.5 1.5 0 0 1 1.03 1.03L6.375 11l.322-1.191a1.5 1.5 0 0 1 1.03-1.03L9.018 8.5l-1.191-.278a1.5 1.5 0 0 1-1.03-1.03Z" fill="white" fill-opacity="0.7"/>
  </g>
</svg>
