<svg width="192" height="192" viewBox="0 0 192 192" fill="none" xmlns="http://www.w3.org/2000/svg">
  <defs>
    <linearGradient id="gradient" x1="0%" y1="0%" x2="100%" y2="100%">
      <stop offset="0%" style="stop-color:#3B82F6;stop-opacity:1" />
      <stop offset="100%" style="stop-color:#8B5CF6;stop-opacity:1" />
    </linearGradient>
  </defs>
  <rect width="192" height="192" rx="48" fill="url(#gradient)"/>
  <g transform="translate(48, 48)">
    <path d="M58.878 95.424 54 112.5l-4.878-17.076a27 27 0 0 0-18.54-18.54L13.5 72l17.082-4.884a27 27 0 0 0 18.54-18.54L54 31.5l4.878 17.076a27 27 0 0 0 18.54 18.54L94.5 72l-17.076 4.884a27 27 0 0 0-18.546 18.54Z" fill="white"/>
    <path d="M40.182 43.146 38.25 36l-1.932 7.146a9 9 0 0 1-6.18 6.18L23 51l7.138 1.668a9 9 0 0 1 6.18 6.18L38.25 66l1.932-7.146a9 9 0 0 1 6.18-6.18L54.108 51l-7.146-1.668a9 9 0 0 1-6.18-6.18Z" fill="white" fill-opacity="0.7"/>
  </g>
</svg>
